<mxfile host="app.diagrams.net" agent="Mozilla/5.0 (Windows NT 10.0; Win64; x64; rv:130.0) Gecko/20100101 Firefox/130.0" version="24.7.16">
  <diagram name="Page-1" id="subdCa7FV8XBtYdt0jGB">
    <mxGraphModel dx="1154" dy="568" grid="0" gridSize="10" guides="1" tooltips="1" connect="1" arrows="1" fold="1" page="0" pageScale="1" pageWidth="850" pageHeight="1100" math="0" shadow="0">
      <root>
        <mxCell id="0" />
        <mxCell id="1" parent="0" />
        <mxCell id="2" value="Global Network" style="whiteSpace=wrap;strokeWidth=2;" parent="1" vertex="1">
          <mxGeometry x="33" y="8" width="143" height="35" as="geometry" />
        </mxCell>
        <mxCell id="3" value="Player Interaction" style="whiteSpace=wrap;strokeWidth=2;" parent="1" vertex="1">
          <mxGeometry x="19" y="50" width="877" height="165" as="geometry" />
        </mxCell>
        <mxCell id="4" value="Web Server" style="whiteSpace=wrap;strokeWidth=2;" parent="1" vertex="1">
          <mxGeometry x="396" y="247" width="490" height="256" as="geometry" />
        </mxCell>
        <mxCell id="5" value="Player 1" style="whiteSpace=wrap;strokeWidth=2;" parent="1" vertex="1">
          <mxGeometry x="45" y="128" width="118" height="49" as="geometry" />
        </mxCell>
        <mxCell id="6" value="SOS Game" style="rounded=1;arcSize=40;strokeWidth=2" parent="1" vertex="1">
          <mxGeometry x="421" y="340" width="102" height="49" as="geometry" />
        </mxCell>
        <mxCell id="7" value="Player 2" style="whiteSpace=wrap;strokeWidth=2;" parent="1" vertex="1">
          <mxGeometry x="742" y="128" width="118" height="49" as="geometry" />
        </mxCell>
        <mxCell id="8" value="Database" style="shape=hexagon;perimeter=hexagonPerimeter2;fixedSize=1;strokeWidth=2;whiteSpace=wrap;" parent="1" vertex="1">
          <mxGeometry x="753" y="434" width="98" height="34" as="geometry" />
        </mxCell>
        <mxCell id="9" value="makes a move" style="curved=1;startArrow=none;endArrow=block;exitX=1;exitY=0.21;entryX=0.43;entryY=0;" parent="1" source="5" target="6" edge="1">
          <mxGeometry x="-0.1231" y="6" relative="1" as="geometry">
            <Array as="points">
              <mxPoint x="286" y="110" />
              <mxPoint x="461" y="195" />
            </Array>
            <mxPoint as="offset" />
          </mxGeometry>
        </mxCell>
        <mxCell id="10" value="update game state" style="curved=1;startArrow=none;endArrow=block;exitX=0.95;exitY=0;entryX=0.23;entryY=1;" parent="1" source="6" target="7" edge="1">
          <mxGeometry relative="1" as="geometry">
            <Array as="points">
              <mxPoint x="602" y="260" />
            </Array>
          </mxGeometry>
        </mxCell>
        <mxCell id="11" value="makes a move" style="curved=1;startArrow=none;endArrow=block;exitX=0.3;exitY=1;entryX=1;entryY=0.22;" parent="1" source="7" target="6" edge="1">
          <mxGeometry relative="1" as="geometry">
            <Array as="points">
              <mxPoint x="659" y="279" />
            </Array>
          </mxGeometry>
        </mxCell>
        <mxCell id="12" value="manages game state" style="curved=1;dashed=1;dashPattern=2 3;startArrow=none;endArrow=block;exitX=0.95;exitY=1;entryX=0;entryY=0.49;" parent="1" source="6" target="8" edge="1">
          <mxGeometry relative="1" as="geometry">
            <Array as="points">
              <mxPoint x="633" y="451" />
            </Array>
          </mxGeometry>
        </mxCell>
        <mxCell id="13" value="interacts with web app" style="curved=1;dashed=1;dashPattern=2 3;startArrow=none;endArrow=block;exitX=1;exitY=0.5;entryX=0.41;entryY=0;" parent="1" source="5" target="6" edge="1">
          <mxGeometry x="-0.1795" y="-25" relative="1" as="geometry">
            <Array as="points">
              <mxPoint x="396" y="153" />
            </Array>
            <mxPoint as="offset" />
          </mxGeometry>
        </mxCell>
        <mxCell id="14" value="interacts with web app" style="curved=1;dashed=1;dashPattern=2 3;startArrow=none;endArrow=block;exitX=0.34;exitY=1;entryX=1;entryY=0.5;" parent="1" source="7" target="6" edge="1">
          <mxGeometry relative="1" as="geometry">
            <Array as="points">
              <mxPoint x="633" y="365" />
            </Array>
          </mxGeometry>
        </mxCell>
        <mxCell id="15" value="connected to internet" style="curved=1;dashed=1;dashPattern=2 3;startArrow=none;endArrow=block;exitX=1;exitY=0.79;entryX=0.39;entryY=0;" parent="1" source="5" target="6" edge="1">
          <mxGeometry relative="1" as="geometry">
            <Array as="points">
              <mxPoint x="286" y="196" />
            </Array>
          </mxGeometry>
        </mxCell>
        <mxCell id="16" value="connected to internet" style="curved=1;dashed=1;dashPattern=2 3;startArrow=none;endArrow=block;exitX=0.37;exitY=1;entryX=1;entryY=0.78;" parent="1" source="7" target="6" edge="1">
          <mxGeometry relative="1" as="geometry">
            <Array as="points">
              <mxPoint x="633" y="408" />
            </Array>
          </mxGeometry>
        </mxCell>
        <mxCell id="O9xXwt3ZXODGCuBIdsst-16" value="update game state" style="curved=1;startArrow=none;endArrow=block;exitX=0.95;exitY=0;" edge="1" parent="1">
          <mxGeometry x="-0.1765" y="10" relative="1" as="geometry">
            <Array as="points">
              <mxPoint x="267" y="251" />
            </Array>
            <mxPoint x="421" y="363.56" as="sourcePoint" />
            <mxPoint x="56" y="181.0015584415583" as="targetPoint" />
            <mxPoint as="offset" />
          </mxGeometry>
        </mxCell>
      </root>
    </mxGraphModel>
  </diagram>
</mxfile>
